<mxfile host="app.diagrams.net" modified="2023-05-06T03:39:35.638Z" agent="Mozilla/5.0 (Macintosh; Intel Mac OS X 10_15_7) AppleWebKit/537.36 (KHTML, like Gecko) Chrome/112.0.0.0 Safari/537.36" version="21.2.9" etag="SH5mVPhtNaLRULJcUStQ" type="github">
  <diagram name="Page-1" id="WBYiy3ttlDKKin6woNnu">
    <mxGraphModel>
      <root>
        <mxCell id="0" />
        <mxCell id="1" parent="0" />
      </root>
    </mxGraphModel>
  </diagram>
</mxfile>
